<svg xmlns="http://www.w3.org/2000/svg" xmlns:xlink="http://www.w3.org/1999/xlink" width="500" zoomAndPan="magnify" viewBox="0 0 375 374.999991" height="500" preserveAspectRatio="xMidYMid meet" version="1.0"><defs><g/></defs><path fill="#1375e8" d="M 192.15625 261.09375 C 195.898438 259.367188 284.621094 219.75 284.621094 158.953125 L 284.621094 68.0625 C 284.621094 64.714844 283.160156 61.539062 280.632812 59.339844 C 278.109375 57.148438 274.816406 56.140625 271.421875 56.59375 C 271.257812 56.59375 223.867188 63.335938 195.875 33.929688 C 191.503906 29.339844 183.464844 29.328125 179.085938 33.929688 C 151.125 63.347656 103.640625 56.605469 103.582031 56.59375 C 100.28125 56.105469 96.898438 57.113281 94.359375 59.304688 C 91.824219 61.496094 90.363281 64.703125 90.363281 68.0625 L 90.363281 158.953125 C 90.363281 219.761719 179.0625 259.4375 182.828125 261.09375 C 182.839844 261.09375 187.300781 263.328125 192.15625 261.09375 Z M 192.15625 261.09375 " fill-opacity="1" fill-rule="nonzero"/><path fill="#f4f6fc" d="M 181.886719 204.132812 C 176.375 200.875 174.554688 193.761719 177.820312 188.257812 L 196.140625 157.308594 L 158.527344 157.308594 C 154.335938 157.308594 150.464844 155.035156 148.414062 151.375 C 146.363281 147.714844 146.46875 143.21875 148.65625 139.648438 L 177.914062 92.152344 C 181.273438 86.707031 188.410156 85.003906 193.859375 88.363281 C 199.316406 91.726562 200.996094 98.863281 197.648438 104.308594 L 179.269531 134.132812 L 216.464844 134.132812 C 220.625 134.132812 224.460938 136.371094 226.535156 139.984375 C 228.597656 143.601562 228.5625 148.039062 226.429688 151.617188 L 197.75 200.0625 C 191.484375 209.738281 181.886719 204.132812 181.886719 204.132812 Z M 181.886719 204.132812 " fill-opacity="1" fill-rule="nonzero"/><g fill="#38b6ff" fill-opacity="1"><g transform="translate(91.886512, 318.049138)"><g><path d="M 10.65625 0.28125 C 8.800781 0.28125 7.171875 -0.0234375 5.765625 -0.640625 C 4.359375 -1.265625 3.269531 -2.132812 2.5 -3.25 C 1.738281 -4.375 1.359375 -5.6875 1.359375 -7.1875 L 1.359375 -7.796875 C 1.359375 -8.203125 1.5625 -8.40625 1.96875 -8.40625 L 5.71875 -8.40625 C 6.125 -8.40625 6.328125 -8.25 6.328125 -7.9375 L 6.328125 -7.4375 C 6.328125 -6.488281 6.757812 -5.6875 7.625 -5.03125 C 8.5 -4.375 9.644531 -4.046875 11.0625 -4.046875 C 12.320312 -4.046875 13.253906 -4.3125 13.859375 -4.84375 C 14.472656 -5.382812 14.78125 -6.046875 14.78125 -6.828125 C 14.78125 -7.398438 14.585938 -7.882812 14.203125 -8.28125 C 13.816406 -8.675781 13.300781 -9.019531 12.65625 -9.3125 C 12.019531 -9.613281 10.984375 -10.03125 9.546875 -10.5625 C 7.929688 -11.101562 6.570312 -11.660156 5.46875 -12.234375 C 4.375 -12.804688 3.441406 -13.585938 2.671875 -14.578125 C 1.910156 -15.566406 1.53125 -16.789062 1.53125 -18.25 C 1.53125 -19.675781 1.898438 -20.925781 2.640625 -22 C 3.378906 -23.070312 4.410156 -23.894531 5.734375 -24.46875 C 7.066406 -25.039062 8.578125 -25.328125 10.265625 -25.328125 C 12.078125 -25.328125 13.695312 -25.003906 15.125 -24.359375 C 16.5625 -23.722656 17.675781 -22.828125 18.46875 -21.671875 C 19.269531 -20.515625 19.671875 -19.171875 19.671875 -17.640625 L 19.671875 -17.28125 C 19.671875 -16.875 19.472656 -16.671875 19.078125 -16.671875 L 15.3125 -16.671875 C 14.90625 -16.671875 14.703125 -16.789062 14.703125 -17.03125 L 14.703125 -17.390625 C 14.703125 -18.390625 14.289062 -19.238281 13.46875 -19.9375 C 12.644531 -20.644531 11.519531 -21 10.09375 -21 C 8.945312 -21 8.0625 -20.757812 7.4375 -20.28125 C 6.820312 -19.8125 6.515625 -19.15625 6.515625 -18.3125 C 6.515625 -17.71875 6.691406 -17.21875 7.046875 -16.8125 C 7.398438 -16.40625 7.941406 -16.035156 8.671875 -15.703125 C 9.398438 -15.367188 10.53125 -14.941406 12.0625 -14.421875 C 13.726562 -13.796875 15.050781 -13.25 16.03125 -12.78125 C 17.007812 -12.320312 17.882812 -11.613281 18.65625 -10.65625 C 19.4375 -9.707031 19.828125 -8.484375 19.828125 -6.984375 C 19.828125 -5.523438 19.445312 -4.242188 18.6875 -3.140625 C 17.9375 -2.046875 16.875 -1.203125 15.5 -0.609375 C 14.132812 -0.015625 12.519531 0.28125 10.65625 0.28125 Z M 10.65625 0.28125 "/></g></g></g><g fill="#38b6ff" fill-opacity="1"><g transform="translate(115.428683, 318.049138)"><g><path d="M 18.28125 0 C 17.945312 0 17.722656 -0.164062 17.609375 -0.5 L 16.609375 -3.828125 C 16.578125 -3.941406 16.503906 -4 16.390625 -4 L 7.625 -4 C 7.5 -4 7.425781 -3.941406 7.40625 -3.828125 L 6.40625 -0.5 C 6.28125 -0.164062 6.050781 0 5.71875 0 L 1.578125 0 C 1.359375 0 1.203125 -0.0625 1.109375 -0.1875 C 1.015625 -0.320312 1.003906 -0.488281 1.078125 -0.6875 L 8.6875 -24.546875 C 8.8125 -24.878906 9.039062 -25.046875 9.375 -25.046875 L 14.640625 -25.046875 C 14.972656 -25.046875 15.195312 -24.878906 15.3125 -24.546875 L 22.9375 -0.6875 C 22.957031 -0.632812 22.96875 -0.5625 22.96875 -0.46875 C 22.96875 -0.320312 22.921875 -0.207031 22.828125 -0.125 C 22.734375 -0.0390625 22.601562 0 22.4375 0 Z M 8.65625 -8.15625 C 8.632812 -7.988281 8.695312 -7.90625 8.84375 -7.90625 L 15.171875 -7.90625 C 15.316406 -7.90625 15.375 -7.988281 15.34375 -8.15625 L 12.125 -19.078125 C 12.101562 -19.171875 12.0625 -19.21875 12 -19.21875 C 11.945312 -19.21875 11.894531 -19.171875 11.84375 -19.078125 Z M 8.65625 -8.15625 "/></g></g></g><g fill="#38b6ff" fill-opacity="1"><g transform="translate(141.797259, 318.049138)"><g><path d="M 19.53125 -21.328125 C 19.53125 -20.921875 19.328125 -20.71875 18.921875 -20.71875 L 7.4375 -20.71875 C 7.300781 -20.71875 7.234375 -20.644531 7.234375 -20.5 L 7.234375 -15.03125 C 7.234375 -14.882812 7.300781 -14.8125 7.4375 -14.8125 L 14.921875 -14.8125 C 15.328125 -14.8125 15.53125 -14.609375 15.53125 -14.203125 L 15.53125 -11.09375 C 15.53125 -10.6875 15.328125 -10.484375 14.921875 -10.484375 L 7.4375 -10.484375 C 7.300781 -10.484375 7.234375 -10.410156 7.234375 -10.265625 L 7.234375 -0.609375 C 7.234375 -0.203125 7.03125 0 6.625 0 L 2.796875 0 C 2.390625 0 2.1875 -0.203125 2.1875 -0.609375 L 2.1875 -24.4375 C 2.1875 -24.84375 2.390625 -25.046875 2.796875 -25.046875 L 18.921875 -25.046875 C 19.328125 -25.046875 19.53125 -24.84375 19.53125 -24.4375 Z M 19.53125 -21.328125 "/></g></g></g><g fill="#38b6ff" fill-opacity="1"><g transform="translate(164.194564, 318.049138)"><g><path d="M 19.578125 -21.328125 C 19.578125 -20.921875 19.375 -20.71875 18.96875 -20.71875 L 7.4375 -20.71875 C 7.300781 -20.71875 7.234375 -20.644531 7.234375 -20.5 L 7.234375 -15.03125 C 7.234375 -14.882812 7.300781 -14.8125 7.4375 -14.8125 L 14.921875 -14.8125 C 15.328125 -14.8125 15.53125 -14.609375 15.53125 -14.203125 L 15.53125 -11.09375 C 15.53125 -10.6875 15.328125 -10.484375 14.921875 -10.484375 L 7.4375 -10.484375 C 7.300781 -10.484375 7.234375 -10.410156 7.234375 -10.265625 L 7.234375 -4.546875 C 7.234375 -4.398438 7.300781 -4.328125 7.4375 -4.328125 L 18.96875 -4.328125 C 19.375 -4.328125 19.578125 -4.125 19.578125 -3.71875 L 19.578125 -0.609375 C 19.578125 -0.203125 19.375 0 18.96875 0 L 2.796875 0 C 2.390625 0 2.1875 -0.203125 2.1875 -0.609375 L 2.1875 -24.4375 C 2.1875 -24.84375 2.390625 -25.046875 2.796875 -25.046875 L 18.96875 -25.046875 C 19.375 -25.046875 19.578125 -24.84375 19.578125 -24.4375 Z M 19.578125 -21.328125 "/></g></g></g><g fill="#38b6ff" fill-opacity="1"><g transform="translate(187.450519, 318.049138)"><g><path d="M 10.65625 0.28125 C 8.800781 0.28125 7.171875 -0.0234375 5.765625 -0.640625 C 4.359375 -1.265625 3.269531 -2.132812 2.5 -3.25 C 1.738281 -4.375 1.359375 -5.6875 1.359375 -7.1875 L 1.359375 -7.796875 C 1.359375 -8.203125 1.5625 -8.40625 1.96875 -8.40625 L 5.71875 -8.40625 C 6.125 -8.40625 6.328125 -8.25 6.328125 -7.9375 L 6.328125 -7.4375 C 6.328125 -6.488281 6.757812 -5.6875 7.625 -5.03125 C 8.5 -4.375 9.644531 -4.046875 11.0625 -4.046875 C 12.320312 -4.046875 13.253906 -4.3125 13.859375 -4.84375 C 14.472656 -5.382812 14.78125 -6.046875 14.78125 -6.828125 C 14.78125 -7.398438 14.585938 -7.882812 14.203125 -8.28125 C 13.816406 -8.675781 13.300781 -9.019531 12.65625 -9.3125 C 12.019531 -9.613281 10.984375 -10.03125 9.546875 -10.5625 C 7.929688 -11.101562 6.570312 -11.660156 5.46875 -12.234375 C 4.375 -12.804688 3.441406 -13.585938 2.671875 -14.578125 C 1.910156 -15.566406 1.53125 -16.789062 1.53125 -18.25 C 1.53125 -19.675781 1.898438 -20.925781 2.640625 -22 C 3.378906 -23.070312 4.410156 -23.894531 5.734375 -24.46875 C 7.066406 -25.039062 8.578125 -25.328125 10.265625 -25.328125 C 12.078125 -25.328125 13.695312 -25.003906 15.125 -24.359375 C 16.5625 -23.722656 17.675781 -22.828125 18.46875 -21.671875 C 19.269531 -20.515625 19.671875 -19.171875 19.671875 -17.640625 L 19.671875 -17.28125 C 19.671875 -16.875 19.472656 -16.671875 19.078125 -16.671875 L 15.3125 -16.671875 C 14.90625 -16.671875 14.703125 -16.789062 14.703125 -17.03125 L 14.703125 -17.390625 C 14.703125 -18.390625 14.289062 -19.238281 13.46875 -19.9375 C 12.644531 -20.644531 11.519531 -21 10.09375 -21 C 8.945312 -21 8.0625 -20.757812 7.4375 -20.28125 C 6.820312 -19.8125 6.515625 -19.15625 6.515625 -18.3125 C 6.515625 -17.71875 6.691406 -17.21875 7.046875 -16.8125 C 7.398438 -16.40625 7.941406 -16.035156 8.671875 -15.703125 C 9.398438 -15.367188 10.53125 -14.941406 12.0625 -14.421875 C 13.726562 -13.796875 15.050781 -13.25 16.03125 -12.78125 C 17.007812 -12.320312 17.882812 -11.613281 18.65625 -10.65625 C 19.4375 -9.707031 19.828125 -8.484375 19.828125 -6.984375 C 19.828125 -5.523438 19.445312 -4.242188 18.6875 -3.140625 C 17.9375 -2.046875 16.875 -1.203125 15.5 -0.609375 C 14.132812 -0.015625 12.519531 0.28125 10.65625 0.28125 Z M 10.65625 0.28125 "/></g></g></g><g fill="#38b6ff" fill-opacity="1"><g transform="translate(210.992685, 318.049138)"><g><path d="M 9.125 -0.03125 C 8.71875 -0.03125 8.515625 -0.234375 8.515625 -0.640625 L 8.515625 -9.484375 L 8.4375 -9.765625 L 1.21875 -24.328125 C 1.144531 -24.453125 1.109375 -24.5625 1.109375 -24.65625 C 1.109375 -24.769531 1.15625 -24.863281 1.25 -24.9375 C 1.34375 -25.007812 1.472656 -25.046875 1.640625 -25.046875 L 5.796875 -25.046875 C 6.128906 -25.046875 6.367188 -24.890625 6.515625 -24.578125 L 10.875 -15.28125 C 10.925781 -15.207031 10.976562 -15.171875 11.03125 -15.171875 C 11.09375 -15.171875 11.132812 -15.207031 11.15625 -15.28125 L 15.53125 -24.578125 C 15.695312 -24.890625 15.9375 -25.046875 16.25 -25.046875 L 20.4375 -25.046875 C 20.789062 -25.046875 20.96875 -24.90625 20.96875 -24.625 C 20.96875 -24.5 20.941406 -24.398438 20.890625 -24.328125 L 13.59375 -9.765625 L 13.53125 -9.484375 L 13.53125 -0.640625 C 13.53125 -0.234375 13.328125 -0.03125 12.921875 -0.03125 Z M 9.125 -0.03125 "/></g></g></g><g fill="#38b6ff" fill-opacity="1"><g transform="translate(235.429287, 318.049138)"><g><path d="M 2.796875 0 C 2.390625 0 2.1875 -0.203125 2.1875 -0.609375 L 2.1875 -24.4375 C 2.1875 -24.84375 2.390625 -25.046875 2.796875 -25.046875 L 6.46875 -25.046875 C 6.78125 -25.046875 7.019531 -24.914062 7.1875 -24.65625 L 16.140625 -9.765625 C 16.179688 -9.671875 16.234375 -9.632812 16.296875 -9.65625 C 16.359375 -9.6875 16.390625 -9.75 16.390625 -9.84375 L 16.390625 -24.4375 C 16.390625 -24.84375 16.59375 -25.046875 17 -25.046875 L 20.75 -25.046875 C 21.15625 -25.046875 21.359375 -24.84375 21.359375 -24.4375 L 21.359375 -0.609375 C 21.359375 -0.203125 21.15625 0 20.75 0 L 17.109375 0 C 16.816406 0 16.578125 -0.140625 16.390625 -0.421875 L 7.40625 -15.453125 C 7.351562 -15.546875 7.296875 -15.582031 7.234375 -15.5625 C 7.179688 -15.539062 7.15625 -15.484375 7.15625 -15.390625 L 7.1875 -0.609375 C 7.1875 -0.203125 6.984375 0 6.578125 0 Z M 2.796875 0 "/></g></g></g><g fill="#38b6ff" fill-opacity="1"><g transform="translate(261.332759, 318.049138)"><g><path d="M 10.984375 0.28125 C 9.117188 0.28125 7.484375 -0.078125 6.078125 -0.796875 C 4.671875 -1.523438 3.585938 -2.546875 2.828125 -3.859375 C 2.066406 -5.171875 1.6875 -6.6875 1.6875 -8.40625 L 1.6875 -16.671875 C 1.6875 -18.390625 2.066406 -19.90625 2.828125 -21.21875 C 3.585938 -22.53125 4.671875 -23.539062 6.078125 -24.25 C 7.484375 -24.96875 9.117188 -25.328125 10.984375 -25.328125 C 12.816406 -25.328125 14.429688 -24.988281 15.828125 -24.3125 C 17.222656 -23.632812 18.304688 -22.664062 19.078125 -21.40625 C 19.859375 -20.15625 20.25 -18.707031 20.25 -17.0625 C 20.25 -16.851562 20.054688 -16.722656 19.671875 -16.671875 L 15.84375 -16.421875 L 15.703125 -16.421875 C 15.367188 -16.421875 15.203125 -16.484375 15.203125 -16.609375 L 15.203125 -16.8125 C 15.203125 -18.082031 14.8125 -19.097656 14.03125 -19.859375 C 13.257812 -20.617188 12.242188 -21 10.984375 -21 C 9.691406 -21 8.660156 -20.617188 7.890625 -19.859375 C 7.117188 -19.097656 6.734375 -18.082031 6.734375 -16.8125 L 6.734375 -8.1875 C 6.734375 -6.945312 7.117188 -5.945312 7.890625 -5.1875 C 8.660156 -4.425781 9.691406 -4.046875 10.984375 -4.046875 C 12.242188 -4.046875 13.257812 -4.425781 14.03125 -5.1875 C 14.8125 -5.945312 15.203125 -6.945312 15.203125 -8.1875 C 15.203125 -8.3125 15.253906 -8.414062 15.359375 -8.5 C 15.472656 -8.582031 15.625 -8.613281 15.8125 -8.59375 L 19.640625 -8.40625 C 20.046875 -8.363281 20.25 -8.304688 20.25 -8.234375 L 20.25 -8.046875 C 20.25 -6.398438 19.859375 -4.941406 19.078125 -3.671875 C 18.304688 -2.410156 17.222656 -1.4375 15.828125 -0.75 C 14.429688 -0.0625 12.816406 0.28125 10.984375 0.28125 Z M 10.984375 0.28125 "/></g></g></g><g fill="#a6a6a6" fill-opacity="1"><g transform="translate(125.435298, 337.059734)"><g><path d="M 3.875 0.109375 C 3.195312 0.109375 2.601562 -0.00390625 2.09375 -0.234375 C 1.582031 -0.460938 1.1875 -0.78125 0.90625 -1.1875 C 0.632812 -1.59375 0.5 -2.066406 0.5 -2.609375 L 0.5 -2.828125 C 0.5 -2.984375 0.570312 -3.0625 0.71875 -3.0625 L 2.078125 -3.0625 C 2.222656 -3.0625 2.296875 -3.003906 2.296875 -2.890625 L 2.296875 -2.703125 C 2.296875 -2.359375 2.453125 -2.066406 2.765625 -1.828125 C 3.085938 -1.585938 3.503906 -1.46875 4.015625 -1.46875 C 4.472656 -1.46875 4.8125 -1.5625 5.03125 -1.75 C 5.257812 -1.945312 5.375 -2.191406 5.375 -2.484375 C 5.375 -2.691406 5.300781 -2.863281 5.15625 -3 C 5.019531 -3.144531 4.832031 -3.269531 4.59375 -3.375 C 4.363281 -3.488281 3.988281 -3.640625 3.46875 -3.828125 C 2.882812 -4.035156 2.390625 -4.242188 1.984375 -4.453125 C 1.585938 -4.660156 1.25 -4.941406 0.96875 -5.296875 C 0.695312 -5.660156 0.5625 -6.101562 0.5625 -6.625 C 0.5625 -7.144531 0.691406 -7.597656 0.953125 -7.984375 C 1.222656 -8.378906 1.597656 -8.679688 2.078125 -8.890625 C 2.566406 -9.097656 3.117188 -9.203125 3.734375 -9.203125 C 4.390625 -9.203125 4.976562 -9.082031 5.5 -8.84375 C 6.019531 -8.613281 6.425781 -8.285156 6.71875 -7.859375 C 7.007812 -7.441406 7.15625 -6.957031 7.15625 -6.40625 L 7.15625 -6.28125 C 7.15625 -6.132812 7.078125 -6.0625 6.921875 -6.0625 L 5.5625 -6.0625 C 5.414062 -6.0625 5.34375 -6.101562 5.34375 -6.1875 L 5.34375 -6.3125 C 5.34375 -6.675781 5.191406 -6.984375 4.890625 -7.234375 C 4.597656 -7.492188 4.191406 -7.625 3.671875 -7.625 C 3.253906 -7.625 2.929688 -7.535156 2.703125 -7.359375 C 2.472656 -7.191406 2.359375 -6.957031 2.359375 -6.65625 C 2.359375 -6.4375 2.421875 -6.253906 2.546875 -6.109375 C 2.679688 -5.960938 2.878906 -5.828125 3.140625 -5.703125 C 3.410156 -5.585938 3.820312 -5.429688 4.375 -5.234375 C 4.988281 -5.015625 5.472656 -4.816406 5.828125 -4.640625 C 6.179688 -4.472656 6.5 -4.21875 6.78125 -3.875 C 7.0625 -3.53125 7.203125 -3.082031 7.203125 -2.53125 C 7.203125 -2 7.066406 -1.535156 6.796875 -1.140625 C 6.523438 -0.742188 6.140625 -0.4375 5.640625 -0.21875 C 5.140625 0 4.550781 0.109375 3.875 0.109375 Z M 3.875 0.109375 "/></g></g></g><g fill="#a6a6a6" fill-opacity="1"><g transform="translate(134.649949, 337.059734)"><g><path d="M 6.640625 0 C 6.523438 0 6.441406 -0.0625 6.390625 -0.1875 L 6.03125 -1.390625 C 6.019531 -1.429688 5.992188 -1.453125 5.953125 -1.453125 L 2.765625 -1.453125 C 2.722656 -1.453125 2.695312 -1.429688 2.6875 -1.390625 L 2.328125 -0.1875 C 2.285156 -0.0625 2.203125 0 2.078125 0 L 0.578125 0 C 0.492188 0 0.429688 -0.0195312 0.390625 -0.0625 C 0.359375 -0.113281 0.359375 -0.175781 0.390625 -0.25 L 3.15625 -8.921875 C 3.195312 -9.035156 3.28125 -9.09375 3.40625 -9.09375 L 5.3125 -9.09375 C 5.4375 -9.09375 5.519531 -9.035156 5.5625 -8.921875 L 8.328125 -0.25 C 8.335938 -0.226562 8.34375 -0.203125 8.34375 -0.171875 C 8.34375 -0.117188 8.320312 -0.078125 8.28125 -0.046875 C 8.25 -0.015625 8.207031 0 8.15625 0 Z M 3.140625 -2.96875 C 3.140625 -2.90625 3.164062 -2.875 3.21875 -2.875 L 5.515625 -2.875 C 5.566406 -2.875 5.585938 -2.90625 5.578125 -2.96875 L 4.40625 -6.921875 C 4.394531 -6.960938 4.378906 -6.984375 4.359375 -6.984375 C 4.335938 -6.984375 4.316406 -6.960938 4.296875 -6.921875 Z M 3.140625 -2.96875 "/></g></g></g><g fill="#a6a6a6" fill-opacity="1"><g transform="translate(144.891283, 337.059734)"><g><path d="M 7.09375 -7.75 C 7.09375 -7.601562 7.019531 -7.53125 6.875 -7.53125 L 2.703125 -7.53125 C 2.648438 -7.53125 2.625 -7.503906 2.625 -7.453125 L 2.625 -5.453125 C 2.625 -5.398438 2.648438 -5.375 2.703125 -5.375 L 5.421875 -5.375 C 5.566406 -5.375 5.640625 -5.300781 5.640625 -5.15625 L 5.640625 -4.03125 C 5.640625 -3.882812 5.566406 -3.8125 5.421875 -3.8125 L 2.703125 -3.8125 C 2.648438 -3.8125 2.625 -3.785156 2.625 -3.734375 L 2.625 -0.21875 C 2.625 -0.0703125 2.550781 0 2.40625 0 L 1.015625 0 C 0.867188 0 0.796875 -0.0703125 0.796875 -0.21875 L 0.796875 -8.875 C 0.796875 -9.019531 0.867188 -9.09375 1.015625 -9.09375 L 6.875 -9.09375 C 7.019531 -9.09375 7.09375 -9.019531 7.09375 -8.875 Z M 7.09375 -7.75 "/></g></g></g><g fill="#a6a6a6" fill-opacity="1"><g transform="translate(153.690055, 337.059734)"><g><path d="M 7.109375 -7.75 C 7.109375 -7.601562 7.035156 -7.53125 6.890625 -7.53125 L 2.703125 -7.53125 C 2.648438 -7.53125 2.625 -7.503906 2.625 -7.453125 L 2.625 -5.453125 C 2.625 -5.398438 2.648438 -5.375 2.703125 -5.375 L 5.421875 -5.375 C 5.566406 -5.375 5.640625 -5.300781 5.640625 -5.15625 L 5.640625 -4.03125 C 5.640625 -3.882812 5.566406 -3.8125 5.421875 -3.8125 L 2.703125 -3.8125 C 2.648438 -3.8125 2.625 -3.785156 2.625 -3.734375 L 2.625 -1.65625 C 2.625 -1.601562 2.648438 -1.578125 2.703125 -1.578125 L 6.890625 -1.578125 C 7.035156 -1.578125 7.109375 -1.503906 7.109375 -1.359375 L 7.109375 -0.21875 C 7.109375 -0.0703125 7.035156 0 6.890625 0 L 1.015625 0 C 0.867188 0 0.796875 -0.0703125 0.796875 -0.21875 L 0.796875 -8.875 C 0.796875 -9.019531 0.867188 -9.09375 1.015625 -9.09375 L 6.890625 -9.09375 C 7.035156 -9.09375 7.109375 -9.019531 7.109375 -8.875 Z M 7.109375 -7.75 "/></g></g></g><g fill="#a6a6a6" fill-opacity="1"><g transform="translate(162.800736, 337.059734)"><g><path d="M 5.84375 0 C 5.726562 0 5.640625 -0.0546875 5.578125 -0.171875 L 3.984375 -3.703125 C 3.960938 -3.742188 3.929688 -3.765625 3.890625 -3.765625 L 2.703125 -3.765625 C 2.648438 -3.765625 2.625 -3.738281 2.625 -3.6875 L 2.625 -0.21875 C 2.625 -0.0703125 2.550781 0 2.40625 0 L 1.015625 0 C 0.867188 0 0.796875 -0.0703125 0.796875 -0.21875 L 0.796875 -8.890625 C 0.796875 -9.035156 0.867188 -9.109375 1.015625 -9.109375 L 4.671875 -9.109375 C 5.222656 -9.109375 5.707031 -8.992188 6.125 -8.765625 C 6.550781 -8.535156 6.878906 -8.210938 7.109375 -7.796875 C 7.335938 -7.378906 7.453125 -6.90625 7.453125 -6.375 C 7.453125 -5.78125 7.300781 -5.269531 7 -4.84375 C 6.707031 -4.425781 6.300781 -4.128906 5.78125 -3.953125 C 5.757812 -3.941406 5.742188 -3.925781 5.734375 -3.90625 C 5.722656 -3.882812 5.726562 -3.863281 5.75 -3.84375 L 7.46875 -0.265625 C 7.488281 -0.222656 7.5 -0.179688 7.5 -0.140625 C 7.5 -0.0976562 7.476562 -0.0625 7.4375 -0.03125 C 7.40625 -0.0078125 7.363281 0 7.3125 0 Z M 2.703125 -7.53125 C 2.648438 -7.53125 2.625 -7.503906 2.625 -7.453125 L 2.625 -5.265625 C 2.625 -5.210938 2.648438 -5.1875 2.703125 -5.1875 L 4.390625 -5.1875 C 4.753906 -5.1875 5.050781 -5.289062 5.28125 -5.5 C 5.507812 -5.71875 5.625 -6 5.625 -6.34375 C 5.625 -6.6875 5.507812 -6.96875 5.28125 -7.1875 C 5.050781 -7.414062 4.753906 -7.53125 4.390625 -7.53125 Z M 2.703125 -7.53125 "/></g></g></g><g fill="#a6a6a6" fill-opacity="1"><g transform="translate(172.301295, 337.059734)"><g/></g></g><g fill="#a6a6a6" fill-opacity="1"><g transform="translate(176.421505, 337.059734)"><g><path d="M 7 -9.09375 C 7.15625 -9.09375 7.234375 -9.019531 7.234375 -8.875 L 7.234375 -7.734375 C 7.234375 -7.585938 7.15625 -7.515625 7 -7.515625 L 4.765625 -7.515625 C 4.710938 -7.515625 4.6875 -7.488281 4.6875 -7.4375 L 4.6875 -0.21875 C 4.6875 -0.0703125 4.609375 0 4.453125 0 L 3.0625 0 C 2.914062 0 2.84375 -0.0703125 2.84375 -0.21875 L 2.84375 -7.4375 C 2.84375 -7.488281 2.816406 -7.515625 2.765625 -7.515625 L 0.578125 -7.515625 C 0.429688 -7.515625 0.359375 -7.585938 0.359375 -7.734375 L 0.359375 -8.875 C 0.359375 -9.019531 0.429688 -9.09375 0.578125 -9.09375 Z M 7 -9.09375 "/></g></g></g><g fill="#a6a6a6" fill-opacity="1"><g transform="translate(185.545175, 337.059734)"><g><path d="M 4.03125 0.140625 C 3.351562 0.140625 2.753906 0.00390625 2.234375 -0.265625 C 1.722656 -0.546875 1.320312 -0.9375 1.03125 -1.4375 C 0.75 -1.9375 0.609375 -2.507812 0.609375 -3.15625 L 0.609375 -5.9375 C 0.609375 -6.582031 0.75 -7.148438 1.03125 -7.640625 C 1.320312 -8.140625 1.722656 -8.523438 2.234375 -8.796875 C 2.753906 -9.066406 3.351562 -9.203125 4.03125 -9.203125 C 4.71875 -9.203125 5.316406 -9.066406 5.828125 -8.796875 C 6.347656 -8.523438 6.75 -8.140625 7.03125 -7.640625 C 7.320312 -7.148438 7.46875 -6.582031 7.46875 -5.9375 L 7.46875 -3.15625 C 7.46875 -2.507812 7.320312 -1.929688 7.03125 -1.421875 C 6.75 -0.921875 6.347656 -0.535156 5.828125 -0.265625 C 5.316406 0.00390625 4.71875 0.140625 4.03125 0.140625 Z M 4.03125 -1.4375 C 4.507812 -1.4375 4.894531 -1.585938 5.1875 -1.890625 C 5.476562 -2.191406 5.625 -2.59375 5.625 -3.09375 L 5.625 -5.953125 C 5.625 -6.453125 5.476562 -6.851562 5.1875 -7.15625 C 4.90625 -7.46875 4.519531 -7.625 4.03125 -7.625 C 3.550781 -7.625 3.164062 -7.46875 2.875 -7.15625 C 2.582031 -6.851562 2.4375 -6.453125 2.4375 -5.953125 L 2.4375 -3.09375 C 2.4375 -2.59375 2.582031 -2.191406 2.875 -1.890625 C 3.164062 -1.585938 3.550781 -1.4375 4.03125 -1.4375 Z M 4.03125 -1.4375 "/></g></g></g><g fill="#a6a6a6" fill-opacity="1"><g transform="translate(195.136702, 337.059734)"><g><path d="M 3.984375 0.109375 C 3.316406 0.109375 2.726562 -0.0234375 2.21875 -0.296875 C 1.707031 -0.566406 1.3125 -0.941406 1.03125 -1.421875 C 0.75 -1.898438 0.609375 -2.457031 0.609375 -3.09375 L 0.609375 -6 C 0.609375 -6.632812 0.75 -7.191406 1.03125 -7.671875 C 1.3125 -8.160156 1.707031 -8.535156 2.21875 -8.796875 C 2.726562 -9.066406 3.316406 -9.203125 3.984375 -9.203125 C 4.648438 -9.203125 5.234375 -9.070312 5.734375 -8.8125 C 6.242188 -8.550781 6.640625 -8.195312 6.921875 -7.75 C 7.203125 -7.300781 7.34375 -6.804688 7.34375 -6.265625 L 7.34375 -6.234375 C 7.34375 -6.085938 7.269531 -6.015625 7.125 -6.015625 L 5.734375 -6.015625 C 5.660156 -6.015625 5.601562 -6.023438 5.5625 -6.046875 C 5.53125 -6.066406 5.515625 -6.09375 5.515625 -6.125 L 5.515625 -6.21875 C 5.515625 -6.613281 5.375 -6.945312 5.09375 -7.21875 C 4.820312 -7.488281 4.453125 -7.625 3.984375 -7.625 C 3.515625 -7.625 3.140625 -7.476562 2.859375 -7.1875 C 2.578125 -6.90625 2.4375 -6.53125 2.4375 -6.0625 L 2.4375 -3.046875 C 2.4375 -2.578125 2.585938 -2.195312 2.890625 -1.90625 C 3.203125 -1.613281 3.59375 -1.46875 4.0625 -1.46875 C 4.507812 -1.46875 4.863281 -1.585938 5.125 -1.828125 C 5.394531 -2.066406 5.53125 -2.398438 5.53125 -2.828125 L 5.53125 -3.390625 C 5.53125 -3.441406 5.503906 -3.46875 5.453125 -3.46875 L 4.078125 -3.46875 C 3.929688 -3.46875 3.859375 -3.539062 3.859375 -3.6875 L 3.859375 -4.765625 C 3.859375 -4.910156 3.929688 -4.984375 4.078125 -4.984375 L 7.125 -4.984375 C 7.269531 -4.984375 7.34375 -4.910156 7.34375 -4.765625 L 7.34375 -3.109375 C 7.34375 -2.453125 7.203125 -1.878906 6.921875 -1.390625 C 6.648438 -0.898438 6.257812 -0.523438 5.75 -0.265625 C 5.238281 -0.015625 4.648438 0.109375 3.984375 0.109375 Z M 3.984375 0.109375 "/></g></g></g><g fill="#a6a6a6" fill-opacity="1"><g transform="translate(204.546291, 337.059734)"><g><path d="M 7.109375 -7.75 C 7.109375 -7.601562 7.035156 -7.53125 6.890625 -7.53125 L 2.703125 -7.53125 C 2.648438 -7.53125 2.625 -7.503906 2.625 -7.453125 L 2.625 -5.453125 C 2.625 -5.398438 2.648438 -5.375 2.703125 -5.375 L 5.421875 -5.375 C 5.566406 -5.375 5.640625 -5.300781 5.640625 -5.15625 L 5.640625 -4.03125 C 5.640625 -3.882812 5.566406 -3.8125 5.421875 -3.8125 L 2.703125 -3.8125 C 2.648438 -3.8125 2.625 -3.785156 2.625 -3.734375 L 2.625 -1.65625 C 2.625 -1.601562 2.648438 -1.578125 2.703125 -1.578125 L 6.890625 -1.578125 C 7.035156 -1.578125 7.109375 -1.503906 7.109375 -1.359375 L 7.109375 -0.21875 C 7.109375 -0.0703125 7.035156 0 6.890625 0 L 1.015625 0 C 0.867188 0 0.796875 -0.0703125 0.796875 -0.21875 L 0.796875 -8.875 C 0.796875 -9.019531 0.867188 -9.09375 1.015625 -9.09375 L 6.890625 -9.09375 C 7.035156 -9.09375 7.109375 -9.019531 7.109375 -8.875 Z M 7.109375 -7.75 "/></g></g></g><g fill="#a6a6a6" fill-opacity="1"><g transform="translate(213.656972, 337.059734)"><g><path d="M 7 -9.09375 C 7.15625 -9.09375 7.234375 -9.019531 7.234375 -8.875 L 7.234375 -7.734375 C 7.234375 -7.585938 7.15625 -7.515625 7 -7.515625 L 4.765625 -7.515625 C 4.710938 -7.515625 4.6875 -7.488281 4.6875 -7.4375 L 4.6875 -0.21875 C 4.6875 -0.0703125 4.609375 0 4.453125 0 L 3.0625 0 C 2.914062 0 2.84375 -0.0703125 2.84375 -0.21875 L 2.84375 -7.4375 C 2.84375 -7.488281 2.816406 -7.515625 2.765625 -7.515625 L 0.578125 -7.515625 C 0.429688 -7.515625 0.359375 -7.585938 0.359375 -7.734375 L 0.359375 -8.875 C 0.359375 -9.019531 0.429688 -9.09375 0.578125 -9.09375 Z M 7 -9.09375 "/></g></g></g><g fill="#a6a6a6" fill-opacity="1"><g transform="translate(222.780637, 337.059734)"><g><path d="M 5.625 -8.875 C 5.625 -9.019531 5.695312 -9.09375 5.84375 -9.09375 L 7.234375 -9.09375 C 7.390625 -9.09375 7.46875 -9.019531 7.46875 -8.875 L 7.46875 -0.21875 C 7.46875 -0.0703125 7.390625 0 7.234375 0 L 5.84375 0 C 5.695312 0 5.625 -0.0703125 5.625 -0.21875 L 5.625 -3.734375 C 5.625 -3.785156 5.597656 -3.8125 5.546875 -3.8125 L 2.703125 -3.8125 C 2.648438 -3.8125 2.625 -3.785156 2.625 -3.734375 L 2.625 -0.21875 C 2.625 -0.0703125 2.550781 0 2.40625 0 L 1.015625 0 C 0.867188 0 0.796875 -0.0703125 0.796875 -0.21875 L 0.796875 -8.875 C 0.796875 -9.019531 0.867188 -9.09375 1.015625 -9.09375 L 2.40625 -9.09375 C 2.550781 -9.09375 2.625 -9.019531 2.625 -8.875 L 2.625 -5.453125 C 2.625 -5.398438 2.648438 -5.375 2.703125 -5.375 L 5.546875 -5.375 C 5.597656 -5.375 5.625 -5.398438 5.625 -5.453125 Z M 5.625 -8.875 "/></g></g></g><g fill="#a6a6a6" fill-opacity="1"><g transform="translate(232.463139, 337.059734)"><g><path d="M 7.109375 -7.75 C 7.109375 -7.601562 7.035156 -7.53125 6.890625 -7.53125 L 2.703125 -7.53125 C 2.648438 -7.53125 2.625 -7.503906 2.625 -7.453125 L 2.625 -5.453125 C 2.625 -5.398438 2.648438 -5.375 2.703125 -5.375 L 5.421875 -5.375 C 5.566406 -5.375 5.640625 -5.300781 5.640625 -5.15625 L 5.640625 -4.03125 C 5.640625 -3.882812 5.566406 -3.8125 5.421875 -3.8125 L 2.703125 -3.8125 C 2.648438 -3.8125 2.625 -3.785156 2.625 -3.734375 L 2.625 -1.65625 C 2.625 -1.601562 2.648438 -1.578125 2.703125 -1.578125 L 6.890625 -1.578125 C 7.035156 -1.578125 7.109375 -1.503906 7.109375 -1.359375 L 7.109375 -0.21875 C 7.109375 -0.0703125 7.035156 0 6.890625 0 L 1.015625 0 C 0.867188 0 0.796875 -0.0703125 0.796875 -0.21875 L 0.796875 -8.875 C 0.796875 -9.019531 0.867188 -9.09375 1.015625 -9.09375 L 6.890625 -9.09375 C 7.035156 -9.09375 7.109375 -9.019531 7.109375 -8.875 Z M 7.109375 -7.75 "/></g></g></g><g fill="#a6a6a6" fill-opacity="1"><g transform="translate(241.573825, 337.059734)"><g><path d="M 5.84375 0 C 5.726562 0 5.640625 -0.0546875 5.578125 -0.171875 L 3.984375 -3.703125 C 3.960938 -3.742188 3.929688 -3.765625 3.890625 -3.765625 L 2.703125 -3.765625 C 2.648438 -3.765625 2.625 -3.738281 2.625 -3.6875 L 2.625 -0.21875 C 2.625 -0.0703125 2.550781 0 2.40625 0 L 1.015625 0 C 0.867188 0 0.796875 -0.0703125 0.796875 -0.21875 L 0.796875 -8.890625 C 0.796875 -9.035156 0.867188 -9.109375 1.015625 -9.109375 L 4.671875 -9.109375 C 5.222656 -9.109375 5.707031 -8.992188 6.125 -8.765625 C 6.550781 -8.535156 6.878906 -8.210938 7.109375 -7.796875 C 7.335938 -7.378906 7.453125 -6.90625 7.453125 -6.375 C 7.453125 -5.78125 7.300781 -5.269531 7 -4.84375 C 6.707031 -4.425781 6.300781 -4.128906 5.78125 -3.953125 C 5.757812 -3.941406 5.742188 -3.925781 5.734375 -3.90625 C 5.722656 -3.882812 5.726562 -3.863281 5.75 -3.84375 L 7.46875 -0.265625 C 7.488281 -0.222656 7.5 -0.179688 7.5 -0.140625 C 7.5 -0.0976562 7.476562 -0.0625 7.4375 -0.03125 C 7.40625 -0.0078125 7.363281 0 7.3125 0 Z M 2.703125 -7.53125 C 2.648438 -7.53125 2.625 -7.503906 2.625 -7.453125 L 2.625 -5.265625 C 2.625 -5.210938 2.648438 -5.1875 2.703125 -5.1875 L 4.390625 -5.1875 C 4.753906 -5.1875 5.050781 -5.289062 5.28125 -5.5 C 5.507812 -5.71875 5.625 -6 5.625 -6.34375 C 5.625 -6.6875 5.507812 -6.96875 5.28125 -7.1875 C 5.050781 -7.414062 4.753906 -7.53125 4.390625 -7.53125 Z M 2.703125 -7.53125 "/></g></g></g></svg>